<svg xmlns="http://www.w3.org/2000/svg" version="1.1" xmlns:xlink="http://www.w3.org/1999/xlink" xmlns:svgjs="http://svgjs.dev/svgjs" width="1000" height="212" viewBox="0 0 1000 212"><g transform="matrix(1,0,0,1,-0.6060591131914066,0.41722955440336307)"><svg viewBox="0 0 396 84" data-background-color="#ffffff" preserveAspectRatio="xMidYMid meet" height="212" width="1000" xmlns="http://www.w3.org/2000/svg" xmlns:xlink="http://www.w3.org/1999/xlink"><g id="tight-bounds" transform="matrix(1,0,0,1,0.23999940882379178,-0.16531737061265517)"><svg viewBox="0 0 395.52 84.33042213227243" height="84.33042213227243" width="395.52"><g><svg viewBox="0 0 531.8491565684177 113.39771410828205" height="84.33042213227243" width="395.52"><g transform="matrix(1,0,0,1,136.32915656841774,32.41489504599991)"><svg viewBox="0 0 395.52 48.56792401628223" height="48.56792401628223" width="395.52"><g id="textblocktransform"><svg viewBox="0 0 395.52 48.56792401628223" height="48.56792401628223" width="395.52" id="textblock"><g><svg viewBox="0 0 395.52 48.56792401628223" height="48.56792401628223" width="395.52"><g transform="matrix(1,0,0,1,0,0)"><svg width="395.52" viewBox="0.9000000357627869 -35.79999923706055 294.7799987792969 36.20000076293945" height="48.56792401628223" data-palette-color="#124948"><path d="M28.3-31.9L24.7-25.1Q24.55-25.35 23.65-25.88 22.75-26.4 21.4-27 20.05-27.6 18.45-28.05 16.85-28.5 15.25-28.5L15.25-28.5Q13.15-28.5 12-27.78 10.85-27.05 10.85-25.55L10.85-25.55Q10.85-24.35 11.73-23.65 12.6-22.95 14.25-22.43 15.9-21.9 18.3-21.2L18.3-21.2Q21.7-20.3 24.2-19.03 26.7-17.75 28.03-15.75 29.35-13.75 29.35-10.45L29.35-10.45Q29.35-7.45 28.25-5.38 27.15-3.3 25.28-2.02 23.4-0.75 21-0.18 18.6 0.4 16.05 0.4L16.05 0.4Q13.45 0.4 10.73-0.13 8-0.65 5.5-1.63 3-2.6 0.9-4L0.9-4 4.5-11.15Q4.7-10.9 5.8-10.23 6.9-9.55 8.53-8.83 10.15-8.1 12.15-7.55 14.15-7 16.2-7L16.2-7Q18.4-7 19.48-7.7 20.55-8.4 20.55-9.65L20.55-9.65Q20.55-11 19.43-11.75 18.3-12.5 16.38-13.1 14.45-13.7 11.95-14.45L11.95-14.45Q8.7-15.45 6.58-16.7 4.45-17.95 3.43-19.75 2.4-21.55 2.4-24.25L2.4-24.25Q2.4-28 4.17-30.58 5.95-33.15 8.95-34.48 11.95-35.8 15.5-35.8L15.5-35.8Q18-35.8 20.33-35.2 22.65-34.6 24.68-33.7 26.7-32.8 28.3-31.9L28.3-31.9ZM49.4 0.3L49.4 0.3Q45.15 0.3 42.15-1.13 39.15-2.55 37.27-5.03 35.4-7.5 34.52-10.68 33.65-13.85 33.65-17.35L33.65-17.35 33.65-35.5 41.85-35.5 41.85-17.35Q41.85-15.35 42.25-13.48 42.65-11.6 43.55-10.15 44.45-8.7 45.87-7.85 47.3-7 49.4-7L49.4-7Q51.55-7 53-7.88 54.45-8.75 55.3-10.23 56.15-11.7 56.55-13.55 56.95-15.4 56.95-17.35L56.95-17.35 56.95-35.5 65.15-35.5 65.15-17.35Q65.15-13.65 64.22-10.45 63.3-7.25 61.4-4.83 59.5-2.4 56.52-1.05 53.55 0.3 49.4 0.3ZM107.69 0L99.5 0 99.5-21.15 91.84-5.75 87.34-5.75 79.69-21.15 79.69 0 71.5 0 71.5-35.5 80.39-35.5 89.59-16.95 98.84-35.5 107.69-35.5 107.69 0ZM150.69 0L142.49 0 142.49-21.15 134.84-5.75 130.34-5.75 122.69-21.15 122.69 0 114.49 0 114.49-35.5 123.39-35.5 132.59-16.95 141.84-35.5 150.69-35.5 150.69 0ZM154.19 0L166.44-35.5 175.29-35.5 187.49 0 179.09 0 176.34-7.95 165.29-7.95 162.59 0 154.19 0ZM166.59-13.6L174.99-13.6 170.84-27.25 166.59-13.6ZM199.19 0L190.99 0 190.99-35.5 206.99-35.5Q209.49-35.5 211.61-34.48 213.74-33.45 215.29-31.73 216.84-30 217.71-27.85 218.59-25.7 218.59-23.5L218.59-23.5Q218.59-21.3 217.89-19.33 217.19-17.35 215.89-15.78 214.59-14.2 212.79-13.2L212.79-13.2 220.59 0 211.54 0 204.74-11.45 199.19-11.45 199.19 0ZM199.19-28.3L199.19-18.6 206.69-18.6Q207.69-18.6 208.46-19.23 209.24-19.85 209.74-20.95 210.24-22.05 210.24-23.5L210.24-23.5Q210.24-24.95 209.66-26.03 209.09-27.1 208.24-27.7 207.39-28.3 206.44-28.3L206.44-28.3 199.19-28.3ZM232.69 0L224.49 0 224.49-35.5 232.69-35.5 232.69 0ZM237.48 0L237.48-6.15 255.58-28.3 238.18-28.3 238.18-35.5 265.43-35.5 265.43-29.35 248.18-7.2 265.63-7.2 265.63 0 237.48 0ZM278.93-7.2L295.68-7.2 295.68 0 270.73 0 270.73-35.5 295.23-35.5 295.23-28.3 278.93-28.3 278.93-21.4 292.93-21.4 292.93-14.75 278.93-14.75 278.93-7.2Z" opacity="1" transform="matrix(1,0,0,1,0,0)" fill="#124948" class="undefined-text-0" data-fill-palette-color="primary" id="text-0"></path></svg></g></svg></g></svg></g></svg></g><g><svg viewBox="0 0 113.39771410828205 113.39771410828205" height="113.39771410828205" width="113.39771410828205"><g><svg></svg></g><g id="icon-0"><svg viewBox="0 0 113.39771410828205 113.39771410828205" height="113.39771410828205" width="113.39771410828205"><g><path d="M0 56.699c0-31.314 25.385-56.699 56.699-56.699 31.314 0 56.699 25.385 56.699 56.699 0 31.314-25.385 56.699-56.699 56.699-31.314 0-56.699-25.385-56.699-56.699zM56.699 109.018c28.895 0 52.319-23.424 52.319-52.319 0-28.895-23.424-52.319-52.319-52.319-28.895 0-52.319 23.424-52.319 52.319 0 28.895 23.424 52.319 52.319 52.319z" data-fill-palette-color="accent" fill="#e84e55" stroke="transparent"></path></g><g transform="matrix(1,0,0,1,24.516213582539372,28.345725242160356)"><svg viewBox="0 0 64.3652869432033 56.706263623961334" height="56.706263623961334" width="64.3652869432033"><g><svg xmlns="http://www.w3.org/2000/svg" xmlns:xlink="http://www.w3.org/1999/xlink" version="1.1" x="0" y="0" viewBox="6.300000190734863 11.5 87.39999389648438 77" style="enable-background:new 0 0 100 100;" xml:space="preserve" height="56.706263623961334" width="64.3652869432033" class="icon-s-0" data-fill-palette-color="accent" id="s-0"><path d="M72.3 12.3L72.3 12.3 72.3 12.3l-0.4-0.8H28.2L6.3 50l21.8 38.5h43.7L93.7 50 72.3 12.3zM33.3 25.3L9.9 47.7l18.6-32.8L33.3 25.3zM70.7 14.8l6.4 35.7L36.9 25.8 70.7 14.8zM35.5 27.3l41 25.2-41 23.3V27.3zM77 54.5l-7.2 30.8-32.6-8.1L77 54.5zM33.5 75L9.9 50.5l23.6-22.7V75zM33.2 77.6l-4.6 7.7L11.5 55.1 33.2 77.6zM35 78.6l31.4 7.9H30.2L35 78.6zM79.3 53.3l11.6-2.5L72.1 84 79.3 53.3zM90.7 48.9l-11.4 2.5-5.9-33.1L90.7 48.9zM35 24.3l-5-10.8h38.2L35 24.3z" fill="#e84e55" data-fill-palette-color="accent"></path></svg></g></svg></g></svg></g></svg></g></svg></g><defs></defs></svg><rect width="395.52" height="84.33042213227243" fill="none" stroke="none" visibility="hidden"></rect></g></svg></g></svg>